<svg width="21" height="21" viewBox="0 0 21 21" fill="none" xmlns="http://www.w3.org/2000/svg">
<path d="M9.46642 0.860657C4.46203 0.860657 0.390381 4.81187 0.390381 9.66823C0.390381 14.5249 4.46203 18.4758 9.46642 18.4758C14.4711 18.4758 18.5425 14.5249 18.5425 9.66823C18.5425 4.81187 14.4711 0.860657 9.46642 0.860657ZM9.46642 16.8498C5.38584 16.8498 2.06596 13.6281 2.06596 9.66827C2.06596 5.70839 5.38584 2.48667 9.46642 2.48667C13.547 2.48667 16.8669 5.70835 16.8669 9.66823C16.8669 13.6281 13.547 16.8498 9.46642 16.8498Z" fill="#AEAEAE"/>
<path d="M20.7546 19.4728L15.9512 14.8116C15.6239 14.494 15.0939 14.494 14.7666 14.8116C14.4393 15.1289 14.4393 15.6438 14.7666 15.9612L19.5699 20.6224C19.7335 20.7812 19.9478 20.8606 20.1622 20.8606C20.3764 20.8606 20.5909 20.7812 20.7546 20.6224C21.0819 20.3051 21.0819 19.7902 20.7546 19.4728Z" fill="#AEAEAE"/>
</svg>
